<svg width="281" height="89" viewBox="0 0 281 89" fill="none" xmlns="http://www.w3.org/2000/svg">
<g clip-path="url(#clip0_11_2)">
<g clip-path="url(#clip1_11_2)">
<g clip-path="url(#clip2_11_2)">
<g clip-path="url(#clip3_11_2)">
<g clip-path="url(#clip4_11_2)">
<g clip-path="url(#clip5_11_2)">
<g clip-path="url(#clip6_11_2)">
<g clip-path="url(#clip7_11_2)">
<g clip-path="url(#clip8_11_2)">
<path d="M1.01856 46.5312C1.32026 45.0562 1.98684 43.8834 3.01988 43.011C4.04739 42.1387 5.3379 41.5141 6.8922 41.1397C8.45203 40.7652 10.2069 40.6181 12.1569 40.6984C14.1069 40.7786 16.1603 41.0366 18.3173 41.474C19.344 41.6824 20.3431 41.8956 21.3137 42.1143C22.2899 42.3337 23.1768 42.543 23.9745 42.742C24.7722 42.941 25.4569 43.1259 26.0287 43.295C26.6013 43.4649 27.0128 43.6073 27.264 43.7221C27.508 43.8409 27.6975 43.9518 27.8326 44.0541C27.9716 44.1626 28.0664 44.2751 28.1177 44.3931C28.1738 44.5119 28.2022 44.6378 28.2014 44.7715C28.1999 44.9099 28.1809 45.0696 28.1446 45.2498C28.1138 45.3984 28.0616 45.562 27.9874 45.7398C27.9092 45.9113 27.8152 46.0686 27.7054 46.2126C27.6004 46.3573 27.4796 46.4745 27.3437 46.5642C27.2016 46.6531 27.0507 46.6814 26.8912 46.6492C26.7877 46.6279 26.6858 46.5618 26.5847 46.4501C26.4789 46.3377 26.3288 46.1898 26.1353 46.0065C25.9418 45.8224 25.6749 45.6163 25.3353 45.3866C24.9894 45.1609 24.5155 44.9154 23.9145 44.6488C23.3182 44.3837 22.5631 44.1099 21.6486 43.8275C20.7324 43.5507 19.6165 43.2793 18.3007 43.0118L15.8168 55.1596L23.7107 56.7612L23.3703 58.4257L15.4764 56.8249L13.9624 64.2325C13.8407 64.8288 13.8242 65.355 13.9134 65.8121C14.0082 66.2699 14.1914 66.6711 14.4647 67.0156C14.7332 67.3593 15.0862 67.6417 15.5246 67.8644C15.9629 68.087 16.4684 68.2561 17.041 68.3725C17.6862 68.5031 18.3441 68.5676 19.0162 68.5652C19.6939 68.5637 20.3391 68.5204 20.9528 68.4362C21.5728 68.3481 22.1453 68.2262 22.6721 68.0705C23.2037 67.9163 23.638 67.7472 23.9761 67.5639L24.5526 68.5322C24.1862 68.7202 23.6902 68.9782 23.0639 69.3055C22.4431 69.6343 21.7062 69.9292 20.8525 70.1896C20.0034 70.4508 19.0367 70.6325 17.9524 70.7332C16.868 70.8346 15.6778 70.7536 14.3833 70.4909C13.9553 70.4044 13.4695 70.284 12.9254 70.1314C12.3828 69.9733 11.8339 69.768 11.2779 69.5163C10.7211 69.2693 10.1856 68.9578 9.67146 68.5802C9.16126 68.2089 8.73161 67.7637 8.38174 67.2429C8.03028 66.7277 7.78229 66.1283 7.63697 65.4463C7.49718 64.7651 7.51534 63.9902 7.69305 63.121L9.23945 55.56L6.26748 54.9567L6.60788 53.2922L9.57985 53.8947L12.0163 41.9782C11.6017 41.9318 11.1199 41.909 10.571 41.9098C10.0229 41.9105 9.45269 41.953 8.86114 42.0364C8.2688 42.1198 7.68041 42.2409 7.0936 42.4006C6.50837 42.5548 5.97052 42.7672 5.48085 43.037C4.98566 43.306 4.56391 43.6325 4.21641 44.0163C3.87048 44.3955 3.64539 44.8399 3.54114 45.3489C3.459 45.7501 3.44794 46.082 3.50639 46.3455C3.56009 46.6083 3.6446 46.8128 3.75991 46.9583C3.87996 47.1062 4.00869 47.2124 4.14611 47.2777C4.28433 47.3375 4.38463 47.3744 4.44623 47.387C4.7661 47.4515 5.03778 47.4507 5.2605 47.3831C5.48401 47.3162 5.69015 47.2399 5.8797 47.1557C6.07003 47.0661 6.2509 46.9819 6.42307 46.9048C6.58892 46.8317 6.76663 46.8144 6.95696 46.8521C7.10623 46.8828 7.25945 46.9481 7.41662 47.0503C7.57695 47.1581 7.71437 47.3005 7.82889 47.479C7.94183 47.6623 8.02555 47.8857 8.07846 48.1477C8.12585 48.4143 8.11321 48.7251 8.04134 49.079C7.93709 49.588 7.74912 50.0072 7.47743 50.3376C7.20496 50.6727 6.88904 50.9276 6.53206 51.1014C6.1735 51.28 5.78018 51.3878 5.3537 51.424C4.93116 51.4664 4.52363 51.4483 4.1319 51.3689C3.52297 51.2454 2.9954 51.0283 2.54759 50.7184C2.10452 50.4147 1.74832 50.0426 1.47822 49.6021C1.21206 49.1679 1.03909 48.6889 0.958536 48.1642C0.881927 47.6458 0.901672 47.1015 1.01856 46.5312ZM35.8063 55.3429C35.5156 55.2933 35.2313 55.2847 34.9533 55.3177C34.6808 55.3508 34.4281 55.4357 34.1967 55.5718C33.9598 55.7071 33.7615 55.8967 33.602 56.1413C33.4432 56.3805 33.3335 56.6786 33.2727 57.0349C33.1874 57.5313 33.2853 58.0528 33.5649 58.6011C33.8437 59.1541 34.2109 59.7401 34.6658 60.36C35.1152 60.9791 35.608 61.6241 36.1443 62.2951C36.675 62.9708 37.1592 63.6669 37.5967 64.3859C38.0287 65.108 38.3644 65.8569 38.6061 66.6325C38.8478 67.4026 38.8991 68.1955 38.7585 69.0128C38.6013 69.9277 38.3068 70.7127 37.8739 71.368C37.4404 72.0287 36.8899 72.5573 36.2233 72.9546C35.5567 73.3518 34.7914 73.6098 33.9274 73.7286C33.0578 73.8466 32.1196 73.8199 31.1126 73.6492C30.2304 73.4989 29.4548 73.2393 28.7867 72.8704C28.113 72.5007 27.5293 72.0869 27.0365 71.6307C26.5429 71.1745 26.1338 70.7111 25.8084 70.2407C25.4838 69.7656 25.2413 69.3432 25.0794 68.9759L25.8305 68.6172C25.964 68.8366 26.1385 69.0789 26.3549 69.3448C26.5713 69.6107 26.8217 69.8632 27.106 70.1023C27.3848 70.3462 27.692 70.5609 28.0293 70.7465C28.3673 70.9267 28.7203 71.0478 29.0884 71.11C30.0069 71.2665 30.7975 71.1745 31.4593 70.8354C32.1211 70.4956 32.5263 69.8946 32.674 69.0309C32.7561 68.5503 32.6811 68.024 32.4481 67.4522C32.2191 66.8866 31.9103 66.2888 31.5217 65.6587C31.1276 65.0278 30.7003 64.3725 30.2399 63.6929C29.7794 63.0133 29.3608 62.3226 28.9849 61.6202C28.6042 60.9114 28.312 60.2027 28.1082 59.4923C27.8997 58.7757 27.8571 58.0607 27.9795 57.3472C28.1169 56.5457 28.3997 55.8762 28.8285 55.3374C29.2582 54.7931 29.7771 54.3706 30.3844 54.0694C30.9965 53.7689 31.6646 53.5793 32.3889 53.5006C33.1179 53.4228 33.8539 53.4464 34.5955 53.573C35.4517 53.7185 36.2178 53.9262 36.8922 54.1952C37.5659 54.4698 38.1283 54.8049 38.5792 55.2005C39.0294 55.5962 39.3516 56.0524 39.5459 56.57C39.7402 57.0868 39.7844 57.6564 39.6778 58.2762C39.5949 58.7624 39.3611 59.1565 38.9789 59.4577C38.6021 59.7551 38.1259 59.855 37.5493 59.7574C37.0044 59.6646 36.6063 59.4774 36.356 59.195C36.1104 58.9142 36.0227 58.5688 36.0922 58.1606C36.138 57.8916 36.2415 57.6941 36.4026 57.5675C36.5645 57.4353 36.7359 57.337 36.9175 57.2717C37.1007 57.2017 37.2627 57.1443 37.404 57.0994C37.5517 57.0499 37.6346 56.9681 37.6544 56.8548C37.7152 56.4985 37.5746 56.1838 37.2311 55.9124C36.8836 55.6355 36.4081 55.4452 35.8063 55.3429ZM41.8521 65.0663C42.0803 63.3932 42.5234 61.9584 43.1813 60.7612C43.8432 59.5702 44.6393 58.609 45.568 57.8774C46.4968 57.1458 47.5275 56.6424 48.6593 56.3671C49.7966 56.0926 50.9552 56.0351 52.1343 56.1948C53.3135 56.3545 54.416 56.7022 55.4427 57.2387C56.4639 57.7744 57.3272 58.4973 58.0325 59.4074C58.7362 60.323 59.2495 61.4298 59.5718 62.7277C59.8877 64.0304 59.9311 65.5234 59.7013 67.2067C59.473 68.8799 59.0276 70.3281 58.3665 71.5513C57.6992 72.7784 56.8991 73.7766 55.9648 74.5436C55.0305 75.3168 53.9951 75.8564 52.8586 76.1632C51.7165 76.4692 50.5563 76.5416 49.3772 76.3819L49.2595 76.3662C49.9514 76.6714 50.6977 77.0584 51.5001 77.5272C52.3065 78.0016 53.1413 78.5066 54.0038 79.0415C54.8607 79.5756 55.7247 80.1184 56.595 80.6706C57.4709 81.2236 58.3207 81.7325 59.1437 82.199C59.9682 82.6599 60.7541 83.0525 61.502 83.3758C62.2444 83.6983 62.9236 83.902 63.5388 83.9854C63.9511 84.0412 64.3049 84.0546 64.6011 84.0255C64.902 84.0027 65.154 83.9468 65.3577 83.8587C65.5662 83.7706 65.736 83.6558 65.8663 83.5142C65.9967 83.3781 66.1136 83.2192 66.2186 83.0383L66.7817 83.2334C66.6143 83.9516 66.3734 84.5911 66.0575 85.152C65.7368 85.712 65.3459 86.1801 64.8854 86.5569C64.4258 86.9281 63.895 87.1956 63.2932 87.3576C62.6977 87.515 62.0477 87.5464 61.344 87.4505C60.5092 87.3372 59.627 87.0485 58.6967 86.5836C57.7718 86.1195 56.8186 85.572 55.8361 84.9419C54.8599 84.3071 53.8766 83.6283 52.8854 82.9069C51.8942 82.1903 50.9204 81.5162 49.9656 80.8837C49.0155 80.2521 48.0985 79.7101 47.2148 79.257C46.3262 78.7976 45.512 78.5184 44.7712 78.4177C44.0145 78.3154 43.4301 78.5671 43.0178 79.1728L42.45 78.8967C42.5155 78.6883 42.6537 78.3949 42.8654 78.0165C43.0707 77.6421 43.3622 77.2794 43.7389 76.9286C44.1109 76.577 44.5713 76.282 45.1194 76.0437C45.6723 75.8061 46.3176 75.7109 47.0552 75.7581C46.1738 75.4057 45.3722 74.9109 44.6519 74.2738C43.9261 73.6358 43.3243 72.8657 42.8464 71.965C42.3686 71.0691 42.0353 70.0425 41.8489 68.8846C41.6618 67.7267 41.6626 66.4539 41.8521 65.0663ZM53.7115 66.4744C53.8513 65.451 53.95 64.4583 54.0061 63.4978C54.0685 62.5374 54.0456 61.6744 53.9374 60.9083C53.8355 60.1374 53.6215 59.5049 53.2961 59.0117C52.9707 58.5177 52.4945 58.2282 51.8682 58.1433C51.2419 58.0583 50.704 58.2235 50.2538 58.6389C49.8037 59.0542 49.4254 59.6276 49.1189 60.3584C48.807 61.0892 48.5526 61.9356 48.3576 62.8992C48.1625 63.8628 47.9951 64.8555 47.8545 65.8797C47.7155 66.8984 47.6104 67.8998 47.5394 68.8854C47.4683 69.871 47.4849 70.7623 47.5891 71.5591C47.6886 72.3505 47.8987 73.0065 48.2209 73.5265C48.5432 74.0464 49.017 74.3485 49.6433 74.4334C50.2696 74.5184 50.8091 74.343 51.2616 73.9064C51.7134 73.4753 52.0956 72.8759 52.4076 72.109C52.7243 71.3475 52.9841 70.472 53.1887 69.484C53.3972 68.5015 53.5717 67.4986 53.7115 66.4744ZM80.9228 62.4996L79.4199 76.3182C79.4072 76.433 79.4017 76.5589 79.4033 76.6966C79.3993 76.8334 79.4167 76.964 79.4554 77.0899C79.4941 77.2204 79.5612 77.3306 79.6576 77.4202C79.7492 77.5036 79.8914 77.5563 80.0857 77.5768C80.3321 77.6035 80.5611 77.5414 80.7736 77.3904C80.986 77.2393 81.1858 77.0812 81.373 76.9168L81.7916 77.3738C81.5681 77.624 81.2925 77.8946 80.9647 78.1864C80.6409 78.4838 80.2586 78.7591 79.8187 79.0124C79.3733 79.2594 78.8757 79.4537 78.3252 79.5945C77.7747 79.7353 77.165 79.7699 76.4945 79.6975C75.929 79.6362 75.4449 79.5103 75.0421 79.3199C74.6448 79.1296 74.3123 78.8928 74.047 78.6112C73.7863 78.3296 73.6039 78.0118 73.4996 77.6578C73.3954 77.3038 73.3638 76.9333 73.4056 76.5479L73.4996 75.6794C72.7801 76.3032 72.0385 76.8405 71.2748 77.2912C70.9407 77.4871 70.5869 77.6759 70.2125 77.8568C69.8429 78.0385 69.463 78.1951 69.0729 78.3272C68.6827 78.4594 68.2799 78.5553 67.8661 78.6167C67.4578 78.6725 67.0542 78.6796 66.6561 78.6364C65.8814 78.553 65.2369 78.3437 64.7227 78.0086C64.2078 77.679 63.8074 77.2716 63.5207 76.787C63.2348 76.3025 63.0437 75.7676 62.9489 75.1823C62.8581 74.6026 62.8438 74.0315 62.9047 73.4683L64.1983 61.5737C64.211 61.4589 64.2165 61.333 64.2157 61.1954C64.2196 61.0585 64.2023 60.9279 64.1628 60.8021C64.1241 60.6715 64.0569 60.5614 63.9606 60.4717C63.869 60.3883 63.7268 60.3356 63.5325 60.3151C63.3019 60.29 63.0784 60.3529 62.8604 60.5039C62.6424 60.6542 62.4458 60.8123 62.2689 60.9775L61.8345 60.5197C62.0525 60.2687 62.3257 59.9974 62.6535 59.7055C62.9773 59.4082 63.3619 59.1329 63.8082 58.8811C64.2481 58.6333 64.7456 58.4391 65.3009 58.2982C65.8561 58.1574 66.4642 58.1228 67.1237 58.1944C67.6892 58.2558 68.1757 58.3816 68.584 58.5736C68.9923 58.7655 69.324 59.0015 69.5791 59.2823C69.8342 59.5631 70.0143 59.8801 70.1193 60.2341C70.2236 60.5881 70.2552 60.9586 70.2133 61.344L68.8162 74.1857C68.7972 74.3626 68.8059 74.5483 68.8431 74.7426C68.8802 74.9361 68.9457 75.1147 69.0389 75.2775C69.1321 75.4458 69.2569 75.5858 69.4149 75.6983C69.5712 75.8155 69.7647 75.8863 69.9954 75.9107C70.3721 75.9516 70.7567 75.895 71.1492 75.7424C71.5418 75.5898 71.9074 75.3971 72.2455 75.1642C72.5827 74.9369 72.8773 74.7072 73.13 74.4767C73.3827 74.2454 73.5691 74.07 73.6876 73.9512L74.9086 62.7293C74.9212 62.6144 74.9268 62.4886 74.9252 62.3509C74.9292 62.2141 74.9118 62.0835 74.8731 61.9576C74.8344 61.827 74.7696 61.7169 74.6788 61.628C74.5816 61.5438 74.4371 61.4911 74.2428 61.4707C74.0122 61.4455 73.7887 61.5085 73.5707 61.6587C73.3527 61.8089 73.1561 61.9671 72.9792 62.133L72.544 61.6752C72.7675 61.4251 73.04 61.1537 73.3638 60.8611C73.6876 60.5637 74.0722 60.2884 74.5177 60.0367C74.9631 59.7897 75.463 59.5954 76.0191 59.4546C76.5743 59.3138 77.1793 59.2792 77.834 59.35C78.3995 59.4113 78.886 59.5372 79.2943 59.7283C79.7026 59.9203 80.0343 60.1562 80.2894 60.4371C80.5445 60.7179 80.7246 61.0349 80.8289 61.3897C80.9331 61.7437 80.9647 62.1142 80.9228 62.4996ZM91.9727 63.8903L90.702 78.9557C90.6878 79.1233 90.6419 79.3215 90.5638 79.552C90.4856 79.7872 90.3331 80.0012 90.1057 80.1931C89.8727 80.389 89.5505 80.5439 89.1398 80.6564C88.7283 80.7697 88.1794 80.7972 87.4915 80.7398C86.8091 80.6824 86.2808 80.5597 85.9064 80.3701C85.5368 80.1758 85.2643 79.961 85.089 79.7258C84.9136 79.4898 84.8117 79.2554 84.7833 79.021C84.7604 78.7874 84.7557 78.6002 84.7675 78.4594L86.0225 63.582C86.0541 63.2107 85.9948 62.8795 85.8448 62.5885C85.69 62.2966 85.4072 62.1338 84.9981 62.0992C84.7778 62.0811 84.5859 62.1039 84.4216 62.1692C84.2628 62.2345 84.0883 62.3305 83.898 62.4571L83.5299 61.9364C83.8443 61.7208 84.1973 61.5085 84.5906 61.2992C84.9776 61.0947 85.3914 60.9193 85.8314 60.7714C86.2713 60.629 86.7404 60.5212 87.238 60.4473C87.7411 60.3734 88.2623 60.3592 88.8033 60.404C89.6429 60.474 90.2842 60.6408 90.7265 60.9043C91.1743 61.1678 91.4925 61.4707 91.6797 61.8137C91.8724 62.1613 91.9767 62.5224 91.9925 62.8976C92.0027 63.2776 91.9956 63.6087 91.9727 63.8903ZM86.0809 55.748C86.1117 55.3877 86.2191 55.0519 86.404 54.7411C86.5943 54.4257 86.8439 54.1567 87.1535 53.9356C87.4678 53.7201 87.8193 53.5573 88.2086 53.4471C88.6035 53.3378 89.0268 53.3024 89.4778 53.3402C89.913 53.3764 90.3166 53.4818 90.6878 53.6548C91.0534 53.8279 91.3678 54.0458 91.6316 54.3101C91.8946 54.5791 92.0928 54.8851 92.2278 55.2281C92.3629 55.5655 92.4158 55.9148 92.385 56.2758C92.3534 56.6518 92.2428 56.9925 92.0533 57.2977C91.8637 57.6029 91.6173 57.864 91.3133 58.0804C91.01 58.292 90.6641 58.4524 90.2739 58.5618C89.879 58.6711 89.4636 58.7073 89.0284 58.6703C88.5774 58.6326 88.166 58.5272 87.7948 58.3541C87.4291 58.181 87.1092 57.9655 86.8352 57.7059C86.5666 57.4416 86.3645 57.1427 86.2294 56.81C86.0991 56.478 86.0493 56.124 86.0809 55.748ZM103.038 62.9417C102.744 62.9236 102.46 62.9448 102.187 63.0062C101.919 63.0683 101.678 63.1792 101.462 63.3389C101.241 63.4986 101.064 63.7078 100.931 63.9682C100.799 64.2223 100.722 64.5307 100.699 64.8917C100.668 65.3944 100.82 65.9025 101.157 66.4178C101.494 66.9377 101.921 67.4821 102.438 68.0508C102.951 68.6187 103.51 69.2079 104.115 69.8183C104.714 70.4343 105.27 71.0754 105.782 71.744C106.288 72.4165 106.702 73.1261 107.024 73.871C107.347 74.6112 107.483 75.3947 107.43 76.2214C107.372 77.1481 107.163 77.9599 106.802 78.6568C106.441 79.3593 105.95 79.9437 105.33 80.4094C104.71 80.8751 103.976 81.2126 103.129 81.4218C102.277 81.631 101.341 81.7042 100.322 81.6405C99.4283 81.5846 98.6298 81.4084 97.9261 81.1119C97.2169 80.8153 96.593 80.466 96.0536 80.0641C95.5141 79.6621 95.0584 79.2452 94.6841 78.8118C94.3105 78.3736 94.0246 77.9795 93.8248 77.6311L94.5332 77.1945C94.6888 77.399 94.8886 77.6216 95.1319 77.8631C95.3751 78.1046 95.6508 78.3288 95.9596 78.5372C96.2629 78.7504 96.5914 78.9313 96.946 79.08C97.3006 79.2232 97.6647 79.3066 98.0383 79.3294C98.9687 79.3876 99.7442 79.213 100.367 78.8055C100.988 78.398 101.327 77.7569 101.382 76.883C101.413 76.3961 101.282 75.8808 100.989 75.3373C100.701 74.7992 100.33 74.2376 99.8769 73.6515C99.4181 73.0655 98.9236 72.4598 98.3929 71.8329C97.863 71.2059 97.3733 70.5633 96.9247 69.9041C96.4706 69.2402 96.1041 68.5652 95.8253 67.8809C95.5418 67.1902 95.4225 66.4846 95.4691 65.7617C95.5205 64.9507 95.7305 64.2545 96.0994 63.6732C96.469 63.0872 96.9389 62.6121 97.5107 62.2479C98.0873 61.8845 98.7317 61.6257 99.4433 61.4707C100.16 61.3157 100.894 61.2622 101.645 61.3094C102.512 61.3637 103.296 61.4888 103.996 61.6854C104.695 61.8868 105.29 62.1606 105.78 62.5059C106.269 62.852 106.639 63.2721 106.887 63.7661C107.136 64.2601 107.24 64.8209 107.201 65.4486C107.17 65.9403 106.979 66.3572 106.631 66.6978C106.288 67.0337 105.825 67.1831 105.242 67.1462C104.69 67.1116 104.274 66.9676 103.995 66.7135C103.721 66.4602 103.597 66.1267 103.623 65.7129C103.64 65.4408 103.722 65.2331 103.868 65.0899C104.015 64.9413 104.175 64.8256 104.349 64.7415C104.523 64.6526 104.678 64.5779 104.814 64.5189C104.955 64.4544 105.029 64.3639 105.037 64.249C105.059 63.888 104.886 63.5906 104.515 63.357C104.14 63.1179 103.647 62.9794 103.038 62.9417ZM117.507 63.6402C117.212 63.6284 116.929 63.6567 116.658 63.7244C116.391 63.7928 116.152 63.9092 115.94 64.0736C115.722 64.238 115.55 64.452 115.424 64.7139C115.297 64.9712 115.227 65.2811 115.213 65.6422C115.192 66.1448 115.357 66.6506 115.705 67.158C116.053 67.6709 116.492 68.205 117.024 68.7619C117.55 69.318 118.122 69.8946 118.74 70.4909C119.354 71.0927 119.924 71.722 120.451 72.378C120.972 73.0388 121.403 73.7389 121.741 74.4767C122.081 75.209 122.233 75.9894 122.201 76.8169C122.164 77.7443 121.973 78.5608 121.628 79.2664C121.282 79.9768 120.805 80.5722 120.197 81.0513C119.587 81.5311 118.862 81.8851 118.02 82.114C117.172 82.3429 116.239 82.4365 115.218 82.3956C114.324 82.3602 113.52 82.2021 112.81 81.9213C112.095 81.6405 111.462 81.3062 110.914 80.9168C110.366 80.5274 109.9 80.1207 109.517 79.6959C109.134 79.2657 108.839 78.8786 108.631 78.5349L109.329 78.0826C109.489 78.2832 109.694 78.5011 109.943 78.7371C110.192 78.973 110.473 79.1909 110.786 79.3923C111.094 79.5984 111.427 79.7722 111.785 79.9123C112.142 80.0476 112.509 80.1223 112.882 80.1372C113.813 80.1742 114.585 79.9823 115.198 79.5606C115.81 79.139 116.134 78.4908 116.169 77.6153C116.189 77.1276 116.046 76.6155 115.741 76.0791C115.441 75.5473 115.058 74.9943 114.591 74.4193C114.118 73.8443 113.611 73.2488 113.066 72.6344C112.521 72.0193 112.017 71.3884 111.553 70.7395C111.084 70.0858 110.703 69.4195 110.409 68.7414C110.109 68.0579 109.974 67.3546 110.004 66.6309C110.036 65.8191 110.23 65.1183 110.586 64.5291C110.943 63.9344 111.401 63.449 111.965 63.0723C112.533 62.6963 113.171 62.4225 113.879 62.251C114.592 62.0803 115.324 62.0095 116.077 62.0402C116.945 62.0748 117.731 62.1826 118.435 62.3627C119.139 62.5484 119.74 62.8087 120.238 63.1431C120.735 63.4782 121.114 63.8896 121.373 64.3773C121.633 64.865 121.75 65.4235 121.725 66.052C121.705 66.5444 121.525 66.9652 121.185 67.3137C120.85 67.6575 120.39 67.8172 119.806 67.7943C119.254 67.7723 118.834 67.6378 118.549 67.3892C118.269 67.1422 118.138 66.8111 118.154 66.3973C118.165 66.1251 118.242 65.9151 118.385 65.7696C118.528 65.6178 118.686 65.4982 118.858 65.4101C119.03 65.3173 119.183 65.2394 119.318 65.1765C119.457 65.1088 119.529 65.0168 119.535 64.9019C119.549 64.5401 119.369 64.2475 118.993 64.0225C118.612 63.792 118.117 63.6646 117.507 63.6402ZM138.719 69.226L130.988 73.6256C130.983 74.0346 131.04 74.4838 131.159 74.9738C131.273 75.4576 131.442 75.9453 131.667 76.4362C131.897 76.9325 132.181 77.4029 132.516 77.8482C132.852 78.2989 133.241 78.7024 133.685 79.0604C134.122 79.4128 134.613 79.6952 135.157 79.9068C135.697 80.1239 136.29 80.2371 136.938 80.2466C137.39 80.2529 137.812 80.2065 138.204 80.1066C138.589 80.0067 138.952 79.8706 139.291 79.6967C139.631 79.5182 139.958 79.3129 140.271 79.0808C140.586 78.844 140.899 78.5939 141.214 78.3312L141.697 78.8023C141.391 79.1964 141.003 79.6291 140.534 80.0995C140.058 80.5699 139.489 81.0104 138.824 81.421C138.155 81.8316 137.379 82.1691 136.496 82.435C135.613 82.6953 134.609 82.818 133.482 82.8023C132.355 82.7866 131.263 82.5695 130.205 82.151C129.142 81.7325 128.203 81.1111 127.388 80.2867C126.567 79.4623 125.918 78.4413 125.44 77.2228C124.957 76.0043 124.727 74.5829 124.75 72.957C124.766 71.7825 124.929 70.7096 125.237 69.7381C125.551 68.7619 125.968 67.884 126.49 67.1045C127.012 66.3249 127.617 65.6437 128.304 65.0608C128.992 64.478 129.715 63.995 130.473 63.6119C131.227 63.2288 131.997 62.9433 132.783 62.7552C133.571 62.5672 134.325 62.4776 135.046 62.4878C136.004 62.5012 136.84 62.6152 137.554 62.8292C138.261 63.0439 138.847 63.3295 139.311 63.6874C139.78 64.0398 140.127 64.4465 140.352 64.9059C140.583 65.3708 140.694 65.8522 140.687 66.3501C140.678 66.9582 140.494 67.5009 140.135 67.9792C139.78 68.4567 139.309 68.872 138.719 69.226ZM130.821 72.0342L134.944 69.7554C135.114 69.6531 135.255 69.5548 135.367 69.462C135.479 69.3637 135.567 69.2472 135.633 69.1119C135.703 68.9821 135.755 68.817 135.79 68.6187C135.825 68.415 135.844 68.1656 135.848 67.8722C135.852 67.5521 135.823 67.1949 135.76 66.8008C135.692 66.4067 135.576 66.0323 135.413 65.6791C135.249 65.3306 135.04 65.0396 134.785 64.8052C134.53 64.5653 134.221 64.4433 133.858 64.4378C133.39 64.4315 132.99 64.5645 132.659 64.8382C132.324 65.1112 132.047 65.4667 131.831 65.9041C131.609 66.336 131.434 66.8323 131.305 67.3916C131.171 67.9509 131.068 68.5133 130.997 69.0789C130.926 69.6445 130.878 70.1888 130.856 70.7135C130.837 71.2327 130.826 71.6732 130.821 72.0342ZM150.534 64.006C150.239 64.0091 149.958 64.0524 149.69 64.1342C149.428 64.216 149.195 64.3442 148.992 64.5196C148.784 64.6951 148.623 64.9177 148.51 65.1867C148.397 65.4502 148.344 65.7633 148.348 66.1243C148.354 66.6278 148.544 67.1234 148.918 67.6126C149.292 68.1066 149.759 68.6179 150.318 69.1458C150.872 69.6744 151.474 70.2203 152.123 70.7843C152.767 71.3538 153.369 71.9524 153.929 72.5802C154.484 73.2134 154.95 73.8899 155.328 74.6089C155.705 75.3231 155.898 76.094 155.908 76.9231C155.919 77.8513 155.771 78.6765 155.464 79.3986C155.156 80.1262 154.711 80.7445 154.127 81.255C153.544 81.7655 152.838 82.1565 152.008 82.4287C151.174 82.7008 150.246 82.8424 149.225 82.8542C148.33 82.8645 147.521 82.748 146.797 82.5058C146.067 82.2627 145.418 81.9606 144.851 81.6004C144.283 81.2401 143.796 80.8578 143.392 80.4527C142.987 80.0428 142.671 79.6716 142.446 79.3396L143.119 78.8511C143.29 79.043 143.506 79.2507 143.767 79.4733C144.028 79.6959 144.32 79.8997 144.643 80.0845C144.961 80.2749 145.302 80.4306 145.667 80.5518C146.032 80.6682 146.401 80.7241 146.775 80.7201C147.707 80.7091 148.468 80.4771 149.058 80.0248C149.648 79.5717 149.937 78.9077 149.926 78.0322C149.921 77.5445 149.751 77.0403 149.419 76.5196C149.092 76.0043 148.679 75.4718 148.183 74.9211C147.682 74.3713 147.143 73.8034 146.568 73.2173C145.992 72.6313 145.455 72.0272 144.959 71.4034C144.456 70.7749 144.04 70.129 143.712 69.4675C143.378 68.8004 143.205 68.1043 143.197 67.3806C143.187 66.568 143.344 65.8577 143.669 65.2512C143.994 64.6392 144.427 64.1303 144.971 63.7252C145.519 63.32 146.142 63.014 146.839 62.8064C147.542 62.5987 148.27 62.4909 149.023 62.4823C149.892 62.4721 150.682 62.5389 151.395 62.6821C152.107 62.8308 152.721 63.0597 153.236 63.3688C153.75 63.6772 154.149 64.0689 154.435 64.5425C154.719 65.016 154.865 65.5682 154.873 66.1975C154.878 66.6907 154.72 67.1194 154.398 67.4852C154.082 67.8455 153.631 68.0295 153.046 68.0358C152.493 68.0421 152.068 67.9296 151.771 67.6968C151.478 67.464 151.33 67.1407 151.324 66.7269C151.321 66.4539 151.387 66.2408 151.523 66.0874C151.658 65.9285 151.809 65.801 151.976 65.7043C152.143 65.6028 152.293 65.5171 152.423 65.4471C152.559 65.3723 152.626 65.2772 152.625 65.1615C152.621 64.7997 152.425 64.5165 152.038 64.3112C151.646 64.1012 151.145 63.9989 150.534 64.006ZM179.149 70.9636C179.141 70.8221 179.126 70.5365 179.104 70.1078C179.081 69.6783 179.042 69.1843 178.986 68.625C178.935 68.0657 178.859 67.471 178.757 66.841C178.66 66.2156 178.527 65.6374 178.357 65.1057C178.025 64.7187 177.66 64.3781 177.259 64.0839C176.865 63.7897 176.369 63.6575 175.775 63.689C174.766 63.7417 174.059 64.4378 173.656 65.7767C173.257 67.1108 173.13 69.1544 173.275 71.9092C173.339 73.119 173.453 74.2234 173.616 75.2232C173.78 76.223 173.994 77.0781 174.257 77.7892C174.521 78.4948 174.84 79.0375 175.213 79.4175C175.592 79.8021 176.026 79.9815 176.515 79.9555C178.582 79.847 179.46 76.8499 179.149 70.9636ZM178.472 62.4839C178.157 61.2087 177.751 60.0249 177.256 58.9323C176.756 57.8452 176.177 56.9122 175.519 56.1319C174.866 55.3523 174.136 54.7522 173.328 54.3329C172.52 53.9081 171.664 53.7193 170.759 53.7665C170.245 53.7933 169.779 53.8837 169.366 54.0363C168.952 54.1842 168.595 54.3526 168.293 54.5413C167.992 54.7356 167.746 54.9166 167.555 55.0841C167.363 55.2572 167.225 55.3846 167.14 55.468L166.6 54.819C166.889 54.4045 167.248 54.0104 167.676 53.6359C168.099 53.267 168.57 52.9461 169.088 52.6723C169.606 52.4033 170.156 52.1807 170.737 52.0029C171.319 51.8306 171.898 51.7292 172.477 51.6993C174.391 51.5994 176.093 51.9274 177.583 52.6841C179.073 53.4409 180.344 54.5531 181.397 56.0218C182.444 57.4896 183.272 59.2847 183.88 61.4054C184.483 63.5324 184.853 65.9072 184.991 68.5314C185.104 70.6577 184.987 72.5361 184.64 74.166C184.288 75.7967 183.742 77.1772 183 78.3083C182.258 79.434 181.328 80.3024 180.212 80.9121C179.094 81.517 177.82 81.8568 176.39 81.9315C175.391 81.9834 174.37 81.8615 173.325 81.5642C172.281 81.2621 171.32 80.7343 170.443 79.9823C169.565 79.2248 168.828 78.2132 168.234 76.9467C167.634 75.681 167.285 74.1078 167.186 72.2278C167.101 70.6097 167.254 69.1576 167.645 67.8714C168.035 66.5853 168.597 65.4872 169.329 64.5779C170.057 63.6677 170.921 62.9582 171.921 62.4493C172.917 61.9403 173.983 61.6563 175.119 61.5966C175.561 61.5737 175.957 61.5871 176.308 61.6367C176.658 61.6917 176.968 61.7625 177.237 61.8475C177.5 61.9387 177.732 62.0394 177.932 62.1503C178.128 62.266 178.308 62.3777 178.472 62.4839ZM201.179 66.4241L193.914 71.552C193.948 71.9595 194.049 72.4016 194.215 72.8767C194.376 73.3471 194.593 73.8159 194.865 74.2832C195.142 74.7544 195.47 75.1957 195.847 75.6063C196.225 76.0224 196.653 76.3866 197.128 76.6997C197.598 77.0081 198.114 77.2409 198.677 77.399C199.235 77.5626 199.836 77.6185 200.481 77.565C200.932 77.5272 201.348 77.4399 201.728 77.303C202.102 77.167 202.45 76.9955 202.77 76.7902C203.091 76.5793 203.396 76.3434 203.686 76.0822C203.975 75.8163 204.263 75.5371 204.55 75.2444L205.077 75.6661C204.812 76.0885 204.468 76.5565 204.047 77.0702C203.619 77.5846 203.096 78.0786 202.475 78.5514C201.849 79.025 201.109 79.4364 200.256 79.7856C199.403 80.1302 198.415 80.3496 197.292 80.4432C196.168 80.5368 195.06 80.4267 193.967 80.1129C192.869 79.799 191.873 79.272 190.981 78.5302C190.084 77.7892 189.338 76.8358 188.744 75.6692C188.143 74.5035 187.776 73.1111 187.64 71.4907C187.541 70.3202 187.599 69.2362 187.81 68.2404C188.027 67.2382 188.357 66.3242 188.801 65.4974C189.244 64.6715 189.779 63.9344 190.406 63.2878C191.033 62.6412 191.705 62.0906 192.423 61.6359C193.135 61.182 193.873 60.8233 194.639 60.559C195.404 60.2955 196.146 60.1334 196.865 60.0737C197.82 59.9942 198.663 60.0265 199.393 60.1712C200.119 60.3159 200.729 60.5441 201.226 60.8548C201.728 61.16 202.112 61.5305 202.381 61.9663C202.656 62.4068 202.814 62.8748 202.856 63.3712C202.906 63.9777 202.777 64.5354 202.465 65.0459C202.16 65.5556 201.73 66.015 201.179 66.4241ZM193.592 69.9843L197.473 67.3169C197.632 67.1981 197.763 67.0872 197.865 66.9841C197.967 66.8756 198.043 66.7505 198.096 66.6097C198.152 66.4736 198.189 66.3045 198.203 66.1031C198.217 65.897 198.212 65.6469 198.188 65.355C198.161 65.0365 198.097 64.684 197.996 64.297C197.889 63.9116 197.738 63.5505 197.54 63.2146C197.344 62.8835 197.107 62.6137 196.83 62.4052C196.553 62.1912 196.234 62.1 195.872 62.1299C195.406 62.1684 195.021 62.3399 194.718 62.6443C194.411 62.9488 194.171 63.3295 193.998 63.7857C193.82 64.2372 193.693 64.7478 193.62 65.3173C193.541 65.8868 193.493 66.4563 193.478 67.0258C193.462 67.5953 193.468 68.142 193.497 68.6667C193.53 69.1851 193.561 69.624 193.592 69.9843ZM221.964 58.6971C221.795 57.5344 221.631 56.4694 221.47 55.5018C221.314 54.539 221.175 53.6981 221.049 52.9791C220.924 52.2609 220.823 51.6922 220.747 51.2745C220.665 50.8568 220.619 50.609 220.608 50.5311C220.326 50.3911 220.021 50.3368 219.691 50.3691C219.366 50.4053 219.042 50.4462 218.719 50.4926C218.271 50.5571 217.749 50.738 217.154 51.0346C216.554 51.3382 215.988 51.726 215.455 52.2004C214.923 52.6739 214.492 53.2237 214.161 53.8483C213.837 54.4721 213.725 55.1376 213.827 55.8432C213.886 56.2483 213.988 56.5645 214.132 56.7927C214.272 57.0216 214.426 57.1852 214.594 57.2827C214.758 57.381 214.914 57.4353 215.064 57.4455C215.221 57.4605 215.33 57.4629 215.393 57.4542C215.711 57.4086 215.966 57.3165 216.159 57.1773C216.346 57.0389 216.514 56.8957 216.663 56.7478C216.813 56.6046 216.953 56.4678 217.083 56.338C217.213 56.2082 217.374 56.1295 217.567 56.1012C217.723 56.0784 217.892 56.0918 218.076 56.1398C218.257 56.1822 218.433 56.2711 218.601 56.4064C218.774 56.5354 218.928 56.7171 219.063 56.9515C219.203 57.186 219.299 57.4817 219.35 57.8404C219.424 58.3494 219.389 58.8048 219.244 59.2068C219.1 59.604 218.889 59.9494 218.613 60.2428C218.331 60.5378 217.998 60.7737 217.614 60.9507C217.225 61.1332 216.832 61.2536 216.437 61.3102C215.822 61.3983 215.254 61.3716 214.734 61.2284C214.208 61.0868 213.747 60.8563 213.349 60.537C212.946 60.2184 212.621 59.8227 212.372 59.35C212.122 58.8772 211.957 58.3604 211.876 57.7995C211.684 56.4709 211.793 55.2737 212.203 54.2086C212.617 53.1372 213.243 52.2051 214.08 51.4122C214.912 50.6145 215.908 49.9656 217.07 49.4653C218.232 48.965 219.462 48.6212 220.759 48.4356C221.921 48.2688 222.892 48.209 223.67 48.2562C224.447 48.2987 225.092 48.4151 225.604 48.6063C226.115 48.7927 226.531 49.0405 226.852 49.3496C227.169 49.6643 227.452 50.0002 227.7 50.3565C228.71 51.822 229.696 53.2678 230.657 54.6924C231.613 56.1185 232.538 57.5116 233.431 58.8725C234.329 60.227 235.199 61.5305 236.04 62.782C236.88 64.0335 237.695 65.215 238.483 66.3257L238.088 63.593L237.233 57.6752C237.079 56.6164 236.959 55.5765 236.869 54.5563C236.78 53.536 236.764 52.5606 236.821 51.6308C236.874 50.7066 237.033 49.8413 237.3 49.035C237.561 48.2295 237.962 47.5066 238.503 46.8678C239.044 46.2338 239.754 45.6973 240.632 45.2592C241.51 44.8203 242.598 44.508 243.895 44.3223C244.547 44.2287 245.156 44.1894 245.721 44.2028C246.282 44.2177 246.779 44.2869 247.212 44.4104C247.638 44.5292 247.986 44.7046 248.253 44.9367C248.525 45.1624 248.685 45.4362 248.731 45.7579C248.76 45.9601 248.763 46.1772 248.737 46.4092C248.712 46.6405 248.653 46.8529 248.558 47.0464C248.47 47.2446 248.348 47.4153 248.193 47.5601C248.038 47.704 247.847 47.7929 247.618 47.8252C247.425 47.8527 247.228 47.7457 247.028 47.5042C246.828 47.2572 246.587 46.9874 246.305 46.694C246.024 46.4061 245.668 46.1552 245.239 45.9412C244.81 45.7327 244.262 45.6761 243.594 45.7721C242.557 45.9207 241.721 46.226 241.085 46.6877C240.455 47.1487 239.976 47.7394 239.65 48.4592C239.319 49.1852 239.123 50.0371 239.062 51.0157C239.002 51.999 239.029 53.0735 239.145 54.2385C239.235 55.0471 239.327 55.8306 239.421 56.5905C239.51 57.3567 239.608 58.1268 239.716 58.9008C239.823 59.6803 239.937 60.4874 240.058 61.3236C240.179 62.159 240.308 63.0573 240.447 64.017C240.642 65.3668 240.823 66.5774 240.989 67.6512C241.159 68.7178 241.305 69.5957 241.425 70.2824C242.145 71.1808 242.843 71.9808 243.52 72.684C244.197 73.392 244.848 73.9772 245.473 74.4389C246.093 74.9007 246.701 75.2405 247.296 75.4568C247.892 75.6732 248.47 75.7416 249.033 75.6606C249.21 75.6354 249.378 75.5843 249.538 75.5088C249.697 75.4332 249.837 75.3546 249.958 75.2736C250.09 75.1862 250.218 75.0824 250.345 74.9636L251.061 75.6157C250.902 75.7707 250.672 75.9603 250.369 76.1845C250.072 76.4126 249.701 76.6431 249.257 76.8759C248.812 77.1095 248.298 77.3259 247.715 77.5264C247.126 77.727 246.476 77.8788 245.762 77.9819C244.725 78.1306 243.691 78.022 242.658 77.6554C241.632 77.2889 240.614 76.7272 239.607 75.9713C238.594 75.2208 237.598 74.3123 236.619 73.2449C235.641 72.1821 234.681 71.0274 233.74 69.7798C232.795 68.5377 231.869 67.2319 230.963 65.8624C230.058 64.4984 229.179 63.1431 228.325 61.7987C227.472 60.4591 226.651 59.1565 225.861 57.8924C225.068 56.6338 224.309 55.4845 223.584 54.4438C223.69 55.1809 223.809 55.9455 223.939 56.7376C224.064 57.525 224.184 58.3211 224.3 59.125L225.158 65.0585C225.311 66.1173 225.434 67.154 225.528 68.168C225.627 69.182 225.645 70.1511 225.582 71.0769C225.519 72.0075 225.361 72.8783 225.105 73.6885C224.85 74.4987 224.447 75.224 223.895 75.8651C223.35 76.5046 222.637 77.0442 221.76 77.4824C220.882 77.9213 219.797 78.2328 218.504 78.4185C217.847 78.5129 217.238 78.5498 216.677 78.5294C216.111 78.5152 215.614 78.446 215.187 78.3217C214.755 78.2037 214.408 78.033 214.147 77.8112C213.887 77.5894 213.732 77.3117 213.684 76.9797C213.654 76.7721 213.651 76.5526 213.676 76.3213C213.702 76.0901 213.759 75.8777 213.848 75.685C213.936 75.4867 214.056 75.316 214.205 75.1729C214.354 75.0297 214.546 74.9408 214.781 74.907C214.905 74.8889 215.032 74.9345 215.16 75.0439C215.288 75.1579 215.426 75.3027 215.573 75.4773C215.726 75.6511 215.897 75.8391 216.085 76.0397C216.279 76.2395 216.502 76.4197 216.753 76.5793C217.005 76.7343 217.301 76.8531 217.644 76.9365C217.98 77.0206 218.373 77.0309 218.82 76.9664C219.857 76.8177 220.694 76.5125 221.329 76.0499C221.959 75.5835 222.436 74.9849 222.761 74.2549C223.087 73.5249 223.277 72.6738 223.334 71.7015C223.391 70.734 223.36 69.6579 223.242 68.4724C223.163 67.6677 223.076 66.8882 222.983 66.133C222.885 65.3786 222.787 64.6117 222.69 63.8306C222.588 63.0502 222.476 62.2377 222.354 61.3912C222.232 60.5503 222.103 59.652 221.964 58.6971ZM263.533 53.5219L266.027 67.1981C266.048 67.3114 266.079 67.4341 266.118 67.5654C266.153 67.6976 266.208 67.8187 266.281 67.9273C266.355 68.0421 266.452 68.1287 266.569 68.1877C266.681 68.2419 266.832 68.2522 267.024 68.2168C267.267 68.1727 267.47 68.0484 267.63 67.8431C267.79 67.6378 267.937 67.4301 268.071 67.2201L268.602 67.5395C268.459 67.8423 268.272 68.1798 268.041 68.5527C267.815 68.9294 267.527 69.3015 267.177 69.6681C266.82 70.0307 266.398 70.358 265.911 70.649C265.423 70.9401 264.848 71.1454 264.185 71.2649C263.626 71.3664 263.125 71.3821 262.684 71.3129C262.248 71.2421 261.863 71.11 261.528 70.9141C261.198 70.7182 260.933 70.4649 260.731 70.155C260.53 69.8451 260.395 69.499 260.325 69.1174L260.168 68.2585C259.656 69.06 259.098 69.7845 258.494 70.4319C258.229 70.7143 257.943 70.9951 257.636 71.2744C257.333 71.5528 257.014 71.8108 256.677 72.0476C256.341 72.2844 255.982 72.4905 255.602 72.6659C255.226 72.835 254.842 72.9554 254.448 73.027C253.681 73.1654 253.003 73.1473 252.415 72.9711C251.827 72.8004 251.327 72.5227 250.915 72.1389C250.503 71.755 250.167 71.2964 249.909 70.7623C249.657 70.2321 249.48 69.6885 249.379 69.1308L247.231 57.359C247.211 57.2457 247.18 57.123 247.14 56.9917C247.106 56.8595 247.051 56.7384 246.978 56.6298C246.904 56.515 246.807 56.4284 246.69 56.3702C246.578 56.316 246.427 56.3057 246.235 56.3403C246.006 56.3812 245.81 56.5055 245.645 56.7108C245.479 56.9169 245.335 57.1238 245.212 57.3331L244.665 57.0161C244.802 56.714 244.987 56.3765 245.218 56.0045C245.444 55.6277 245.735 55.2556 246.09 54.8875C246.442 54.5256 246.863 54.1984 247.356 53.9065C247.849 53.6147 248.422 53.4102 249.075 53.2922C249.634 53.1907 250.137 53.175 250.582 53.2434C251.029 53.3118 251.414 53.4448 251.739 53.6414C252.063 53.8389 252.326 54.0922 252.528 54.4021C252.729 54.712 252.864 55.0582 252.934 55.4397L255.252 68.1483C255.284 68.3237 255.345 68.4992 255.436 68.6746C255.527 68.85 255.641 69.0026 255.777 69.1324C255.913 69.2677 256.074 69.3668 256.256 69.4297C256.44 69.4974 256.646 69.5115 256.874 69.4699C257.247 69.4022 257.6 69.2402 257.932 68.9822C258.265 68.7249 258.561 68.437 258.818 68.1184C259.077 67.8054 259.295 67.5017 259.471 67.2091C259.648 66.9157 259.776 66.6954 259.856 66.5476L257.831 55.4412C257.811 55.328 257.78 55.2052 257.739 55.0739C257.705 54.9417 257.65 54.8206 257.578 54.712C257.503 54.5972 257.409 54.5107 257.297 54.4509C257.18 54.3974 257.026 54.3879 256.834 54.4226C256.606 54.4635 256.409 54.5878 256.244 54.7931C256.078 54.9992 255.934 55.206 255.811 55.4153L255.263 55.0983C255.406 54.7954 255.591 54.458 255.818 54.0867C256.044 53.7099 256.334 53.3378 256.69 52.9697C257.046 52.607 257.471 52.279 257.963 51.988C258.456 51.6961 259.026 51.4916 259.674 51.3744C260.233 51.2729 260.736 51.2572 261.182 51.3256C261.628 51.3941 262.014 51.527 262.338 51.7237C262.663 51.9211 262.926 52.1744 263.127 52.4843C263.329 52.7943 263.464 53.1404 263.533 53.5219ZM274.66 52.5417C274.988 51.7111 275.36 50.941 275.773 50.2314C275.952 49.9309 276.146 49.6328 276.358 49.3355C276.575 49.0429 276.806 48.7715 277.048 48.5221C277.296 48.2712 277.558 48.058 277.832 47.8818C278.111 47.7048 278.403 47.5837 278.707 47.5199C279.357 47.3823 279.905 47.468 280.353 47.7748C280.8 48.0824 281.098 48.5819 281.246 49.2749C281.337 49.7005 281.391 50.1205 281.409 50.5351C281.421 50.9457 281.388 51.4562 281.308 52.0682L280.775 52.1807C280.615 51.807 280.368 51.5191 280.034 51.3162C279.701 51.1187 279.269 51.0755 278.739 51.188C278.347 51.2706 277.977 51.424 277.626 51.6489C277.276 51.8731 276.943 52.1311 276.629 52.423C276.314 52.7148 276.024 53.02 275.758 53.3386C275.487 53.6588 275.241 53.96 275.022 54.2424L277.641 66.5224C277.676 66.6868 277.692 66.8866 277.689 67.1241C277.69 67.3593 277.614 67.5985 277.462 67.8392C277.305 68.087 277.051 68.323 276.701 68.5471C276.345 68.7721 275.829 68.9562 275.155 69.0994C274.485 69.2409 273.941 69.2756 273.522 69.2032C273.102 69.1261 272.768 69.001 272.521 68.828C272.269 68.6565 272.096 68.4622 272.001 68.2467C271.902 68.0319 271.837 67.8549 271.808 67.7165L268.694 53.112C268.616 52.7478 268.463 52.4481 268.235 52.2122C268.002 51.977 267.684 51.9022 267.282 51.9872C267.066 52.0328 266.889 52.1107 266.751 52.22C266.618 52.3286 266.478 52.4709 266.333 52.6464L265.83 52.2546C266.068 51.9573 266.345 51.6529 266.66 51.339C266.971 51.0322 267.316 50.7443 267.695 50.4769C268.075 50.2141 268.493 49.9758 268.947 49.761C269.408 49.5455 269.903 49.3819 270.434 49.2702C270.979 49.1546 271.459 49.1286 271.87 49.1915C272.287 49.2537 272.644 49.3764 272.942 49.5597C273.238 49.7382 273.488 49.9593 273.688 50.222C273.889 50.48 274.056 50.7498 274.192 51.0322C274.323 51.3154 274.424 51.5915 274.498 51.8597C274.565 52.124 274.619 52.3514 274.66 52.5417Z" fill="black"/>
</g>
</g>
</g>
</g>
<g clip-path="url(#clip9_11_2)">
<g clip-path="url(#clip10_11_2)">
<path d="M160.204 11.9759C159.935 7.49086 159.314 3.43498 157.718 0.958626C157.348 0.394824 156.731 -0.196512 155.827 -0.61084C154.881 -1.04702 153.711 -1.35821 152.367 -1.5645C151.215 -1.73505 150.052 -1.8192 148.888 -1.81624C147.65 -1.81624 146.476 -1.72708 145.407 -1.5645C144.063 -1.35821 142.893 -1.04658 141.947 -0.61084C141.072 -0.189082 140.332 0.519822 140.255 0.575765C139.343 1.42278 138.82 2.61769 138.395 3.98567C137.169 8.07301 137.035 14.114 137.027 17.3093C137.027 18.5803 137.053 19.3862 137.054 19.3971C137.076 20.0676 137.597 20.6016 138.228 20.6016H141.241V22.5898C141.241 22.9176 141.367 23.2384 141.585 23.4714C141.691 23.5854 141.82 23.6766 141.963 23.7395C142.106 23.8024 142.26 23.8356 142.416 23.8372H155.359C155.515 23.8356 155.67 23.8024 155.812 23.7395C155.955 23.6766 156.084 23.5854 156.19 23.4714C156.412 23.2308 156.534 22.9162 156.534 22.5898V16.3325C157.258 15.8736 157.981 15.3705 158.599 14.8404C158.994 14.499 159.348 14.1511 159.643 13.7477C159.927 13.3465 160.203 12.8688 160.216 12.1805C160.216 12.1121 160.212 12.0439 160.204 11.9759ZM146.903 1.06352C147.47 0.992279 148.173 0.954255 148.874 0.954255C149.646 0.953381 150.423 1.00102 151.013 1.08625C150.753 1.4211 150.467 1.7362 150.16 2.02897C149.841 2.33622 149.509 2.60545 149.244 2.77241C149.143 2.83862 149.036 2.89525 148.924 2.94155C148.904 2.95029 148.886 2.95553 148.873 2.95947C148.821 2.9431 148.77 2.92188 148.722 2.89609C148.31 2.7051 147.559 2.06219 147.015 1.42802C146.914 1.3122 146.818 1.19595 146.731 1.0845C146.788 1.07751 146.845 1.07008 146.903 1.06352ZM156.88 13.1013C156.288 13.5764 155.521 14.083 154.778 14.5323C154.699 14.5817 154.626 14.6407 154.56 14.708C154.55 14.7158 154.538 14.7206 154.527 14.7285C154.527 14.7276 154.492 14.756 154.4 14.8229C154.216 14.9588 153.842 15.2206 153.351 15.5095L152.805 14.8137C153.284 14.4501 153.775 14.1042 154.28 13.7766C155.169 13.1909 155.925 12.7486 155.926 12.7473C156.3 12.5275 156.533 12.1088 156.533 11.6551V8.32039C156.533 7.63115 156.008 7.07303 155.359 7.07303C154.71 7.07303 154.185 7.63071 154.185 8.32039V10.9296C153.877 11.1197 153.476 11.371 153.043 11.6556C152.092 12.2875 151.023 13.024 150.314 13.7648C149.886 14.2202 149.855 14.951 150.243 15.4457L152.146 17.8727C152.253 18.0111 152.39 18.1234 152.546 18.201C152.703 18.2786 152.875 18.3194 153.05 18.3202C153.218 18.3202 153.387 18.2826 153.546 18.204C153.773 18.0912 153.982 17.9771 154.184 17.8648V21.3416H143.59V7.90475C143.59 7.57565 143.465 7.25397 143.246 7.0219C143.027 6.78982 142.725 6.65652 142.416 6.65652C142.107 6.65652 141.804 6.78982 141.585 7.0219C141.363 7.26276 141.24 7.57789 141.241 7.90475V18.1056H139.378C139.376 17.8696 139.375 17.6034 139.375 17.3097C139.375 15.253 139.449 11.9169 139.827 8.87151C140.015 7.35056 140.281 5.90172 140.63 4.75183C140.971 3.59757 141.432 2.76978 141.782 2.47346C141.783 2.47215 141.822 2.43675 141.895 2.37556C142.106 2.1885 142.646 1.77723 142.884 1.67715C143.201 1.52986 143.598 1.38781 144.055 1.26063C144.08 1.32226 144.105 1.38213 144.132 1.44201C144.523 2.26149 145.212 3.09889 146.024 3.89127C146.43 4.2785 146.858 4.63557 147.31 4.92184C147.768 5.19806 148.23 5.445 148.875 5.4603C149.611 5.43801 150.117 5.13163 150.633 4.79466C151.39 4.27063 152.106 3.55648 152.688 2.8502C152.978 2.49531 153.229 2.14654 153.432 1.79865C153.527 1.61377 153.624 1.45162 153.701 1.25451C154.167 1.38344 154.57 1.52724 154.89 1.67671C155.426 1.92758 155.662 2.19506 155.798 2.39523C156.882 3.96163 157.648 7.84881 157.86 12.1127C157.771 12.2666 157.4 12.7019 156.88 13.1013Z" fill="black"/>
<path d="M160.248 28.3686C159.649 27.0338 158.572 26.2685 157.294 26.2685C156.639 26.2685 156.061 26.4709 155.583 26.7034C154.122 25.73 152.186 25.175 150.139 25.175C144.369 25.175 139.675 28.5176 139.675 32.6268C139.675 34.0949 140.743 36.0826 142.53 36.8658C143.763 37.4077 145.216 37.5187 147.017 37.5187C147.493 37.5187 147.991 37.5109 148.504 37.5021C149.369 37.487 150.234 37.4827 151.099 37.489C151.41 37.4899 151.716 37.4916 152.016 37.4916C153.764 37.4916 155.594 37.4475 157.078 36.9204C158.923 36.2648 160.909 34.642 160.909 32.6272C160.908 30.726 160.699 29.3725 160.248 28.3686ZM156.407 34.7906C155.272 35.1936 153.746 35.2452 152.015 35.2452C151.412 35.2452 150.784 35.2391 150.139 35.2391C149.035 35.2391 147.981 35.2718 147.018 35.2718C145.53 35.2718 144.255 35.1927 143.336 34.7902C142.851 34.5774 142.465 34.1801 142.2 33.7636C143.525 33.903 146.535 34.1735 149.901 34.1735L150.058 34.1726C150.586 34.1709 151.12 34.1635 151.659 34.1469C151.831 34.1407 152.002 34.1337 152.175 34.1268C152.656 34.1071 153.137 34.0813 153.617 34.0472C153.737 34.0389 153.857 34.0271 153.976 34.0179C154.444 33.981 154.911 33.935 155.377 33.8798C155.969 33.8096 156.559 33.7205 157.146 33.6128C157.529 33.5415 157.786 33.153 157.719 32.7465C157.652 32.3388 157.287 32.0669 156.903 32.1382C156.287 32.2505 155.667 32.3416 155.045 32.4113C154.27 30.2304 152.517 28.8078 152.491 28.7553C152.188 28.4957 151.745 28.5473 151.501 28.8694C151.256 29.1907 151.304 29.6622 151.607 29.9214C151.607 29.9214 151.632 29.942 151.691 29.9975C152.005 30.268 153.003 31.3077 153.574 32.5499C153.397 32.5625 153.22 32.5735 153.042 32.5844C152.186 30.9489 150.928 29.9232 150.906 29.879C150.602 29.619 150.159 29.6705 149.915 29.9922C149.67 30.3139 149.719 30.785 150.021 31.0446V31.0438C150.021 31.0446 150.046 31.0661 150.106 31.1207C150.328 31.3121 150.896 31.8921 151.411 32.6561C151.204 32.6609 150.999 32.667 150.793 32.6696C150.068 31.667 149.336 31.0647 149.32 31.0311C149.017 30.771 148.573 30.8226 148.329 31.1447C148.085 31.4655 148.134 31.9371 148.436 32.1967H148.435C148.435 32.1967 148.46 32.2181 148.521 32.2732C148.608 32.3488 148.75 32.4852 148.92 32.6687C147.314 32.6414 145.71 32.5641 144.11 32.4371C143.345 32.3773 142.581 32.3043 141.819 32.2181C142.172 29.6837 145.76 27.421 150.138 27.421C152.073 27.421 154.111 28.0512 155.269 29.2816C155.289 29.3039 155.317 29.313 155.352 29.313C155.507 29.313 155.798 29.1129 156.147 28.9136C156.496 28.7138 156.904 28.5137 157.293 28.5137C158.081 28.5137 158.795 29.3327 158.795 32.6263C158.795 33.2885 157.703 34.3304 156.407 34.7906Z" fill="black"/>
<path d="M140.42 24.6676C139.904 24.1178 139.609 23.3608 139.609 22.5898V22.3079H139.422V28.341C140.022 27.4756 140.809 26.6824 141.771 25.9888V25.4599C141.254 25.3295 140.786 25.0546 140.42 24.6676ZM136.603 34.8776H132.767V14.8111C132.767 14.1219 132.241 13.5637 131.593 13.5637C130.944 13.5637 130.419 14.1219 130.419 14.8111V34.8776H126.583C125.026 34.8776 123.764 33.5367 123.764 31.8825V4.60148C123.764 3.26715 124.586 2.1378 125.721 1.751V4.62289C125.721 5.31082 126.247 5.87025 126.895 5.87025C127.544 5.87025 128.071 5.31082 128.071 4.62289V1.60721H129.591V9.92219C129.847 9.99119 130.11 10.027 130.375 10.0288C130.639 10.027 130.902 9.99116 131.158 9.92219C132.555 9.54894 133.595 8.20675 133.595 6.608V1.60721H135.508V4.62158C135.508 5.16091 135.831 5.61588 136.281 5.79027C136.446 4.94107 136.632 4.16049 136.843 3.45858C137.21 2.27634 137.767 0.812643 138.828 -0.345554C138.14 -0.699913 137.378 -0.885849 136.603 -0.887939H126.583C123.733 -0.887939 121.415 1.57443 121.415 4.60148V31.8825C121.415 34.91 123.733 37.3728 126.583 37.3728H136.603C137.651 37.3728 138.626 37.0371 139.441 36.4654C138.937 35.8036 138.553 35.059 138.306 34.2653C137.833 34.6473 137.244 34.8776 136.603 34.8776ZM131.158 1.60721H132.029V6.608C132.029 7.27582 131.674 7.84967 131.158 8.14687V1.60721Z" fill="black"/>
</g>
</g>
</g>
</g>
</g>
</g>
</g>
<defs>
<clipPath id="clip0_11_2">
<rect width="281" height="89" fill="white"/>
</clipPath>
<clipPath id="clip1_11_2">
<rect width="281" height="89" fill="white" transform="translate(-0.170288 0.260284)"/>
</clipPath>
<clipPath id="clip2_11_2">
<rect width="280.499" height="89.3213" fill="white" transform="translate(0.0802002 0.0995789)"/>
</clipPath>
<clipPath id="clip3_11_2">
<rect width="280.499" height="89.3213" fill="white" transform="translate(0.912354 -1.81631)"/>
</clipPath>
<clipPath id="clip4_11_2">
<rect width="280.499" height="89.3213" fill="white" transform="translate(0.912354 -1.81631)"/>
</clipPath>
<clipPath id="clip5_11_2">
<rect width="280.499" height="46.8275" fill="white" transform="translate(0.912354 40.6775)"/>
</clipPath>
<clipPath id="clip6_11_2">
<rect width="280.499" height="46.8275" fill="white" transform="translate(0.912354 40.6775)"/>
</clipPath>
<clipPath id="clip7_11_2">
<rect width="280.499" height="46.8275" fill="white" transform="translate(0.912354 40.6775)"/>
</clipPath>
<clipPath id="clip8_11_2">
<rect width="280.499" height="46.8275" fill="white" transform="translate(0.912354 40.6775)"/>
</clipPath>
<clipPath id="clip9_11_2">
<rect width="39.4937" height="39.3351" fill="white" transform="translate(121.415 -1.81631)"/>
</clipPath>
<clipPath id="clip10_11_2">
<rect width="39.4937" height="39.3351" fill="white" transform="translate(121.415 -1.81631)"/>
</clipPath>
</defs>
</svg>
