<svg width="16" height="16" viewBox="0 0 16 16" fill="none" xmlns="http://www.w3.org/2000/svg">
<g clip-path="url(#clip0_11_47)">
<g clip-path="url(#clip1_11_47)">
<path d="M15.7147 5.61015C15.6057 3.7858 15.3538 2.13603 14.7072 1.12874C14.5573 0.899407 14.3076 0.658874 13.9414 0.490341C13.5581 0.312919 13.0841 0.186341 12.5396 0.10243C12.073 0.0330562 11.6018 -0.00117334 11.13 3.06857e-05C10.6285 3.06857e-05 10.1528 0.0362973 9.71971 0.10243C9.17536 0.186341 8.70124 0.313097 8.31813 0.490341C7.96347 0.661896 7.66392 0.950251 7.6328 0.973007C7.26321 1.31754 7.0513 1.80358 6.87921 2.36003C6.38233 4.0226 6.32829 6.47984 6.32473 7.77957C6.32473 8.29655 6.33557 8.62437 6.33593 8.62881C6.34464 8.90153 6.55584 9.11877 6.81148 9.11877H8.03209V9.92748C8.03209 10.0608 8.08311 10.1913 8.17147 10.2861C8.21453 10.3324 8.2666 10.3695 8.32449 10.3951C8.38239 10.4207 8.44488 10.4342 8.50817 10.4349H13.7517C13.815 10.4342 13.8775 10.4207 13.9353 10.3951C13.9932 10.3695 14.0453 10.3324 14.0884 10.2861C14.1781 10.1882 14.2277 10.0602 14.2276 9.92748V7.38224C14.5209 7.19557 14.8141 6.99095 15.0644 6.77531C15.2242 6.63646 15.3678 6.49495 15.4871 6.33086C15.6021 6.16766 15.7141 5.97335 15.7195 5.69335C15.7192 5.66556 15.7176 5.6378 15.7147 5.61015ZM10.3258 1.17141C10.5558 1.14243 10.8406 1.12696 11.1245 1.12696C11.437 1.12661 11.7519 1.14598 11.9912 1.18065C11.8855 1.31685 11.7698 1.44503 11.6452 1.56412C11.5163 1.68909 11.3817 1.79861 11.2742 1.86652C11.2333 1.89345 11.19 1.91648 11.1448 1.93532C11.1364 1.93887 11.1293 1.941 11.124 1.9426C11.1028 1.93595 11.0822 1.92732 11.0626 1.91683C10.8961 1.83914 10.5915 1.57763 10.3714 1.31967C10.3306 1.27256 10.2916 1.22527 10.2562 1.17994C10.2792 1.1771 10.3025 1.17407 10.3258 1.17141ZM14.368 6.06793C14.1282 6.26117 13.8174 6.46722 13.5165 6.64997C13.4842 6.67007 13.4545 6.69407 13.4281 6.72144C13.4239 6.72464 13.4189 6.7266 13.4148 6.7298C13.4148 6.72944 13.4004 6.741 13.3631 6.7682C13.2886 6.82348 13.1369 6.92997 12.9382 7.04748L12.717 6.76446C12.9109 6.61657 13.1101 6.47586 13.3143 6.3426C13.6749 6.10437 13.981 5.92446 13.9815 5.92393C14.133 5.83451 14.2272 5.6642 14.2272 5.47966V4.12322C14.2272 3.84287 14.0144 3.61585 13.7515 3.61585C13.4889 3.61585 13.2759 3.84269 13.2759 4.12322V5.18455C13.1511 5.26189 12.9887 5.36411 12.8135 5.47984C12.428 5.73691 11.9951 6.03646 11.708 6.3378C11.5343 6.52304 11.5218 6.82028 11.679 7.02153L12.4502 8.00873C12.4933 8.06503 12.5487 8.11072 12.6121 8.14227C12.6756 8.17383 12.7455 8.19042 12.8164 8.19077C12.8843 8.19077 12.9527 8.17548 13.0171 8.14348C13.1092 8.09762 13.194 8.05122 13.2756 8.00553V9.41975H8.98372V3.95416C8.98372 3.82029 8.93288 3.68945 8.84417 3.59505C8.75581 3.50065 8.63315 3.44642 8.50799 3.44642C8.38284 3.44642 8.26018 3.50065 8.17129 3.59505C8.08141 3.69302 8.03166 3.8212 8.03191 3.95416V8.10348H7.27743C7.27654 8.00748 7.27601 7.89922 7.27601 7.77975C7.27601 6.94313 7.30587 5.58615 7.45912 4.3474C7.53521 3.72873 7.64312 3.1394 7.78463 2.67167C7.92258 2.20216 8.10942 1.86545 8.25111 1.74492C8.25164 1.74438 8.26746 1.72998 8.29697 1.70509C8.38249 1.62901 8.60115 1.46172 8.69786 1.42101C8.82621 1.36109 8.98692 1.30332 9.17199 1.25158C9.18212 1.27665 9.19243 1.30101 9.2031 1.32536C9.36185 1.65869 9.64096 1.99932 9.96967 2.32163C10.1341 2.47914 10.3078 2.62438 10.4909 2.74083C10.6763 2.85318 10.8635 2.95363 11.1249 2.95985C11.4232 2.95078 11.628 2.82616 11.837 2.68909C12.1435 2.47594 12.4338 2.18545 12.6695 1.89816C12.7869 1.75381 12.8889 1.61194 12.9711 1.47043C13.0096 1.39523 13.0487 1.32927 13.08 1.2491C13.2687 1.30154 13.4319 1.36003 13.5618 1.42083C13.7787 1.52287 13.8743 1.63167 13.9294 1.71309C14.3687 2.35025 14.6789 3.9314 14.765 5.6658C14.7287 5.72838 14.5785 5.90544 14.368 6.06793Z" fill="#F56FB8"/>
<path d="M15.7323 12.2781C15.4896 11.7351 15.0533 11.4238 14.5357 11.4238C14.2704 11.4238 14.0359 11.5061 13.8423 11.6007C13.2505 11.2048 12.4664 10.979 11.637 10.979C9.29946 10.979 7.39761 12.3387 7.39761 14.0101C7.39761 14.6073 7.83032 15.4158 8.55422 15.7344C9.05377 15.9548 9.64238 16 10.3722 16C10.5649 16 10.7666 15.9968 10.9746 15.9932C11.3249 15.9871 11.6753 15.9853 12.0256 15.9879C12.1517 15.9883 12.2756 15.989 12.3972 15.989C13.1053 15.989 13.847 15.971 14.448 15.7566C15.1954 15.49 16 14.8299 16 14.0103C15.9998 13.237 15.9148 12.6864 15.7323 12.2781ZM14.1764 14.8903C13.7165 15.0542 13.0983 15.0752 12.397 15.0752C12.1526 15.0752 11.8982 15.0727 11.6369 15.0727C11.1897 15.0727 10.7627 15.086 10.3723 15.086C9.76949 15.086 9.25306 15.0539 8.88079 14.8901C8.68417 14.8036 8.52791 14.642 8.42071 14.4725C8.95724 14.5292 10.1768 14.6393 11.5403 14.6393L11.6041 14.6389C11.8178 14.6382 12.0344 14.6352 12.2525 14.6284C12.3222 14.626 12.3917 14.6231 12.4616 14.6203C12.6566 14.6123 12.8516 14.6018 13.0459 14.5879C13.0944 14.5845 13.143 14.5797 13.1913 14.576C13.3808 14.561 13.57 14.5423 13.7588 14.5198C13.9988 14.4912 14.2379 14.455 14.4756 14.4112C14.631 14.3822 14.735 14.2242 14.7076 14.0588C14.6806 13.893 14.5326 13.7824 14.3773 13.8114C14.1277 13.8571 13.8765 13.8941 13.6244 13.9225C13.3106 13.0354 12.6004 12.4567 12.5897 12.4354C12.4669 12.3298 12.2873 12.3508 12.1885 12.4818C12.0893 12.6125 12.109 12.8043 12.2317 12.9097C12.2317 12.9097 12.2416 12.9181 12.2658 12.9406C12.3928 13.0507 12.7972 13.4736 13.0283 13.9788C12.9567 13.984 12.885 13.9884 12.813 13.9929C12.4664 13.3277 11.9565 12.9104 11.9474 12.8925C11.8246 12.7867 11.645 12.8077 11.546 12.9385C11.447 13.0693 11.4665 13.261 11.5892 13.3666V13.3662C11.5892 13.3666 11.5993 13.3753 11.6233 13.3975C11.7135 13.4754 11.9437 13.7113 12.1522 14.022C12.0685 14.024 11.9851 14.0265 11.9019 14.0276C11.6081 13.6197 11.3117 13.3748 11.3049 13.3611C11.1823 13.2553 11.0025 13.2763 10.9037 13.4073C10.8047 13.5378 10.8244 13.7296 10.9471 13.8352H10.9467C10.9467 13.8352 10.9569 13.8439 10.9814 13.8663C11.0166 13.8971 11.0742 13.9525 11.143 14.0272C10.4926 14.0161 9.84267 13.9846 9.19421 13.933C8.88433 13.9087 8.57489 13.879 8.26604 13.8439C8.40915 12.813 9.863 11.8926 11.6365 11.8926C12.4203 11.8926 13.2463 12.149 13.7152 12.6494C13.7234 12.6585 13.7348 12.6622 13.7486 12.6622C13.8116 12.6622 13.9294 12.5808 14.071 12.4997C14.2123 12.4185 14.3776 12.3371 14.5353 12.3371C14.8546 12.3371 15.1435 12.6702 15.1435 14.01C15.1437 14.2793 14.7013 14.7031 14.1764 14.8903Z" fill="#F56FB8"/>
<path d="M7.69965 10.7726C7.49059 10.549 7.37077 10.2411 7.37077 9.92748V9.81281H7.29521V12.2669C7.53841 11.9149 7.85698 11.5922 8.24685 11.3101V11.0949C8.03744 11.0419 7.84757 10.9301 7.69965 10.7726ZM6.15318 14.9257H4.59906V6.7634C4.59906 6.48304 4.38609 6.25602 4.12334 6.25602C3.86058 6.25602 3.64761 6.48304 3.64761 6.7634V14.9257H2.09349C1.46292 14.9257 0.951638 14.3803 0.951638 13.7074V2.61051C0.951638 2.06776 1.28461 1.60838 1.74434 1.45105V2.61923C1.74434 2.89905 1.95749 3.1266 2.22007 3.1266C2.483 3.1266 2.69633 2.89905 2.69633 2.61923V1.39256H3.3125V4.77478C3.41597 4.80285 3.52263 4.81742 3.62983 4.81815C3.73697 4.81741 3.84357 4.80283 3.94698 4.77478C4.5132 4.62296 4.93435 4.077 4.93435 3.42669V1.39256H5.70945V2.61869C5.70945 2.83807 5.84029 3.02314 6.02269 3.09407C6.08936 2.74865 6.16491 2.43114 6.25025 2.14563C6.39904 1.66474 6.62482 1.06936 7.0545 0.598252C6.77587 0.454112 6.46689 0.378481 6.15318 0.37763H2.09349C0.939016 0.37763 3.8147e-06 1.37923 3.8147e-06 2.61051V13.7074C3.8147e-06 14.9388 0.939016 15.9406 2.09349 15.9406H6.15318C6.57771 15.9406 6.97255 15.8041 7.30286 15.5716C7.09854 15.3023 6.94289 14.9995 6.84295 14.6766C6.65131 14.832 6.41291 14.9257 6.15318 14.9257ZM3.94698 1.39256H4.29987V3.42669C4.29987 3.69833 4.15605 3.93176 3.94698 4.05265V1.39256Z" fill="#F56FB8"/>
</g>
</g>
<defs>
<clipPath id="clip0_11_47">
<rect width="16" height="16" fill="white"/>
</clipPath>
<clipPath id="clip1_11_47">
<rect width="16" height="16" fill="white"/>
</clipPath>
</defs>
</svg>
